<?xml version="1.0" standalone="no"?>
<!DOCTYPE svg PUBLIC "-//W3C//DTD SVG 20010904//EN"
 "http://www.w3.org/TR/2001/REC-SVG-20010904/DTD/svg10.dtd">
<svg version="1.0" xmlns="http://www.w3.org/2000/svg"
 width="1024.000000pt" height="1024.000000pt" viewBox="0 0 1024.000000 1024.000000"
 preserveAspectRatio="xMidYMid meet">

<g transform="translate(0.000000,1024.000000) scale(0.100000,-0.100000)"
fill="#999" stroke="none">
<path d="M5240 9685 c0 -2 20 -13 44 -24 63 -27 128 -91 159 -155 52 -105 29
-221 -61 -309 l-39 -38 1 88 c1 94 -16 145 -63 187 -26 24 -27 16 -1 -26 29
-47 27 -141 -3 -190 -13 -22 -64 -68 -122 -111 -104 -76 -163 -136 -195 -196
l-17 -35 -16 30 c-50 95 -162 149 -342 165 -190 17 -349 -11 -530 -94 -254
-115 -325 -140 -410 -145 -71 -3 -84 -1 -115 20 -19 13 -43 39 -52 58 -15 28
-18 31 -18 13 0 -57 37 -103 110 -136 73 -34 216 -30 350 11 86 25 128 32 230
36 l125 5 -98 -14 c-138 -20 -245 -51 -329 -96 -40 -21 -134 -69 -208 -108
-375 -192 -647 -445 -757 -704 -31 -75 -53 -137 -49 -137 2 0 23 32 46 71 56
91 116 157 204 223 115 86 123 84 39 -11 -43 -50 -93 -117 -111 -151 -44 -82
-112 -265 -112 -301 0 -15 -8 -35 -17 -44 -25 -21 -318 -175 -461 -241 -299
-138 -575 -198 -758 -167 -91 16 -197 62 -281 120 -161 113 -248 262 -288 495
-41 242 7 498 145 764 109 210 250 382 438 530 146 116 117 160 -74 112 -306
-78 -682 -403 -892 -770 -112 -196 -172 -368 -214 -610 -30 -172 -33 -533 -4
-655 110 -478 369 -798 759 -939 26 -10 47 -21 47 -24 0 -4 -29 -20 -64 -35
-68 -30 -169 -104 -186 -136 -10 -19 -8 -19 42 3 29 13 73 27 98 31 l45 7 -30
-23 c-47 -36 -74 -67 -95 -109 -28 -54 -25 -56 15 -15 42 41 124 85 159 85 25
0 25 0 -10 -37 -139 -150 -155 -400 -29 -465 19 -10 19 -10 -1 13 -34 38 -44
64 -44 116 0 60 36 139 79 176 44 37 161 71 161 47 0 -5 7 -7 16 -3 13 5 15 2
10 -15 -5 -16 -2 -22 16 -27 45 -14 46 -22 16 -82 -59 -120 -58 -244 1 -370
37 -77 71 -116 135 -153 69 -39 75 -38 26 6 -89 80 -93 241 -9 364 43 63 63
75 101 59 21 -8 27 -16 22 -28 -81 -194 -54 -346 80 -442 57 -42 62 -35 10 14
-37 35 -46 51 -54 97 -13 70 0 146 37 219 39 76 58 78 33 5 -32 -91 -27 -167
15 -252 51 -101 129 -162 246 -190 52 -13 139 3 147 26 3 11 0 12 -16 3 -11
-6 -41 -11 -66 -11 -88 0 -146 88 -133 201 14 120 112 209 229 209 41 0 41 1
21 -75 l-6 -20 24 20 c13 11 26 22 29 25 12 14 69 50 78 50 6 0 2 -23 -9 -50
-22 -58 -24 -110 -5 -163 32 -89 107 -159 187 -173 33 -6 33 -6 -11 17 -66 35
-90 77 -90 158 0 78 21 130 77 192 35 39 116 99 134 99 5 0 -8 -33 -27 -73
-43 -92 -60 -178 -45 -235 16 -59 29 -60 29 -3 0 92 20 124 131 209 38 29 42
28 29 -9 -6 -16 -8 -32 -6 -35 3 -2 36 32 74 76 93 108 95 108 64 -15 -24 -93
-26 -208 -5 -285 26 -98 16 -160 -33 -201 -17 -14 -19 -26 -15 -92 5 -90 -15
-139 -72 -183 -76 -57 -20 -51 68 8 l58 39 -7 -28 c-15 -71 -58 -200 -81 -250
-28 -59 -105 -150 -137 -163 -17 -7 -14 -9 15 -9 47 -1 102 39 170 124 29 35
55 63 57 60 8 -7 -19 -66 -60 -132 -36 -57 -87 -111 -134 -140 -10 -7 3 -5 31
5 30 10 67 34 92 59 l43 42 0 -28 c0 -58 -49 -270 -80 -343 -17 -43 -49 -96
-70 -120 -35 -40 -41 -43 -88 -43 -60 0 -56 -9 11 -27 46 -12 54 -11 125 14
42 15 78 25 81 22 9 -9 -37 -43 -101 -75 -33 -17 -58 -36 -58 -45 0 -8 16 -22
35 -30 19 -8 35 -18 35 -23 0 -34 -139 -99 -185 -87 -40 10 -29 -3 21 -24 25
-11 67 -20 92 -20 l46 0 -56 -58 c-36 -36 -62 -73 -71 -102 -17 -51 -15 -60
10 -38 10 9 46 30 80 47 l62 31 -25 -43 c-31 -54 -31 -116 -2 -176 17 -36 23
-41 26 -26 6 29 22 43 22 19 0 -15 4 -13 18 11 11 17 27 36 36 44 14 12 13 6
-5 -23 -27 -46 -21 -108 17 -169 14 -24 23 -32 19 -19 -4 13 -4 45 0 70 l7 47
32 -65 c23 -49 37 -66 55 -68 13 -2 28 1 34 7 18 18 25 13 45 -31 11 -24 29
-52 41 -62 26 -24 26 -20 1 35 -26 59 -26 78 0 54 16 -14 23 -16 32 -7 7 7 22
12 35 12 18 0 29 -12 52 -63 27 -59 68 -120 58 -87 -2 8 -12 40 -22 71 -32
101 8 127 44 29 12 -33 62 -121 111 -195 112 -169 142 -228 169 -335 27 -107
106 -268 184 -373 75 -101 205 -232 314 -316 89 -68 86 -62 98 -189 12 -120
66 -258 162 -406 24 -37 46 -66 49 -64 2 3 -3 25 -12 49 -31 89 -28 242 8 317
16 32 62 47 84 25 47 -47 84 -172 84 -283 0 -76 20 -147 73 -260 56 -121 122
-209 189 -254 28 -20 54 -33 56 -31 3 2 -9 20 -26 40 -18 19 -39 49 -48 66
-16 32 -48 168 -41 176 3 2 14 -16 26 -41 32 -64 110 -119 245 -173 75 -29 78
-29 30 3 -60 40 -135 115 -150 151 -8 18 -14 45 -14 61 0 47 29 141 55 180
l25 37 93 -95 c125 -127 205 -274 223 -410 4 -28 12 -54 19 -56 7 -3 57 21
111 53 55 33 142 83 194 113 52 29 127 75 166 101 68 45 74 53 138 168 90 161
165 274 266 401 101 125 308 335 440 445 52 44 97 82 100 85 15 17 223 178
335 260 118 86 276 204 380 284 148 114 347 301 393 368 9 13 50 64 91 113
116 138 285 368 351 480 13 22 51 83 85 135 49 75 159 261 225 381 30 56 152
292 201 389 163 328 322 783 360 1030 15 95 3 193 -36 315 -34 104 -146 336
-158 328 -6 -3 -7 -1 -3 6 4 6 0 24 -10 38 -16 26 -17 26 -31 7 -14 -18 -14
-18 -9 6 4 14 3 30 -1 35 -11 14 -60 35 -83 35 -11 0 -20 4 -20 9 0 13 101 11
118 -2 26 -20 11 15 -28 67 -22 29 -40 56 -40 61 0 4 18 5 40 2 54 -7 184 -72
233 -116 46 -41 97 -116 97 -143 0 -10 5 -18 10 -18 17 0 11 43 -14 95 -32 71
-112 153 -194 202 -95 56 -154 75 -230 71 l-61 -3 49 -65 c28 -36 54 -70 60
-77 30 -36 -19 -30 -53 7 -23 24 -37 30 -68 30 -24 0 -38 4 -34 10 3 6 1 10
-4 10 -6 0 -11 -7 -11 -15 0 -8 -7 -15 -15 -15 -8 0 -15 4 -15 9 0 5 -12 12
-27 14 -25 4 -24 5 7 6 19 2 51 3 71 4 45 1 46 0 -86 130 -199 196 -285 244
-445 249 -30 1 -60 6 -67 10 -7 6 -14 4 -19 -3 -5 -8 -3 -9 6 -4 9 6 11 4 5
-4 -5 -9 -10 -10 -18 -2 -7 7 -16 7 -28 0 -15 -7 -17 -6 -13 6 4 8 11 15 17
15 6 0 8 3 4 6 -7 8 -57 -26 -121 -83 -28 -25 -58 -43 -72 -43 -13 0 -24 -5
-24 -11 0 -7 14 -10 35 -7 19 2 35 3 35 2 0 -13 -83 -82 -125 -104 -30 -16
-55 -33 -54 -37 5 -17 -86 -53 -131 -52 -123 1 -189 83 -146 182 7 15 2 17
-32 17 -38 0 -69 19 -45 27 6 2 9 12 6 22 -7 28 36 40 210 56 222 21 229 22
342 66 55 21 132 45 170 53 39 8 75 15 80 16 6 1 24 2 40 1 30 -1 30 -2 -11
-20 -40 -18 -76 -52 -42 -39 32 13 216 40 239 35 22 -4 23 -5 4 -11 -11 -4
-38 -16 -60 -27 l-40 -19 163 4 c89 2 162 0 162 -4 0 -8 -48 -21 -159 -41
l-65 -12 70 -17 c38 -10 85 -24 104 -33 32 -15 33 -16 10 -17 -21 -1 -17 -5
20 -20 l45 -20 -37 6 c-49 8 -65 -2 -42 -27 28 -31 99 -68 211 -110 58 -22
115 -47 127 -55 24 -16 36 -18 36 -4 0 18 -70 76 -120 100 -27 13 -50 29 -50
36 0 7 19 18 43 24 69 19 257 115 327 168 97 74 238 225 308 331 172 257 246
515 245 851 -2 678 -301 1270 -808 1604 -180 119 -315 177 -457 197 -70 10
-88 10 -113 -2 -59 -28 -46 -50 75 -133 126 -88 213 -172 309 -301 127 -169
208 -327 265 -516 102 -338 85 -630 -52 -893 -50 -96 -152 -211 -228 -259 -56
-35 -195 -77 -276 -84 l-67 -6 -83 78 c-99 92 -327 267 -436 335 -150 92 -474
240 -529 240 -11 0 -33 23 -55 58 l-38 57 64 7 c64 6 113 25 135 52 9 11 1 10
-40 -5 l-52 -20 -66 72 c-36 40 -80 94 -98 120 -37 54 -166 174 -256 237 -71
50 -199 117 -272 142 -27 9 -66 28 -86 42 -73 49 -345 120 -518 134 l-81 7 25
31 c70 86 115 210 115 316 0 96 -22 168 -66 218 l-34 37 26 -59 c32 -70 30
-141 -6 -224 -25 -57 -106 -139 -171 -172 -37 -19 -199 -70 -223 -70 -7 0 -16
33 -23 84 -28 204 -152 400 -302 474 -56 28 -111 41 -111 27z m3290 -70 c200
-31 570 -277 753 -503 174 -214 284 -434 368 -732 86 -305 78 -721 -17 -978
-96 -257 -263 -504 -412 -611 -18 -13 9 20 62 72 92 94 194 234 250 345 34 68
96 249 96 281 0 37 -14 17 -50 -69 -42 -99 -88 -174 -177 -292 -65 -85 -138
-157 -148 -146 -2 2 10 24 27 48 46 68 153 293 188 399 27 81 31 102 25 155
-4 34 -8 124 -11 201 -2 77 -4 145 -4 150 -2 30 -47 -86 -76 -195 -51 -194
-76 -254 -167 -390 -134 -200 -339 -347 -630 -449 l-119 -42 -46 23 c-35 18
-55 37 -82 83 -42 68 -77 88 -67 37 8 -39 29 -88 58 -131 l23 -34 -34 6 c-25
5 -49 22 -82 59 -52 58 -58 58 -28 -2 26 -50 25 -51 -9 -39 -22 8 -35 25 -55
68 -29 66 -56 139 -55 149 1 4 1 32 -1 62 -2 81 -18 34 -19 -58 -1 -56 6 -92
25 -148 15 -41 24 -77 21 -80 -3 -4 -35 -3 -70 0 -52 6 -72 14 -113 45 l-49
37 0 116 c0 64 -3 111 -7 105 -20 -36 -41 -153 -41 -229 0 -49 -2 -88 -3 -88
-1 0 -14 26 -29 58 -38 83 -107 149 -91 88 3 -13 9 -32 12 -43 3 -10 -4 -3
-16 15 -29 42 -37 164 -20 282 6 47 14 108 16 135 l5 50 -16 -35 c-39 -85 -56
-175 -62 -328 -6 -151 -6 -152 -26 -135 -52 47 -104 236 -112 403 -6 122 -5
120 -16 85 -19 -66 -21 -171 -5 -284 10 -62 15 -116 12 -119 -4 -3 -6 2 -6 11
0 9 -6 20 -13 24 -15 9 -47 54 -47 66 0 4 5 5 12 1 7 -4 8 -3 4 5 -4 6 -11 9
-16 6 -5 -3 -23 25 -41 62 -34 73 -76 130 -92 125 -13 -4 -6 16 38 118 59 136
76 188 82 256 3 35 9 64 14 64 4 0 65 -29 136 -64 388 -194 667 -276 888 -262
137 9 217 28 296 70 l68 35 6 -28 c4 -17 39 -62 86 -111 59 -60 80 -87 76
-101 -9 -34 9 -20 75 59 160 189 230 417 231 747 0 195 -12 285 -63 465 -90
317 -229 567 -441 792 -103 109 -172 166 -276 227 -72 41 -90 57 -55 47 9 -2
37 -8 62 -11z m-6900 -513 c-176 -151 -344 -359 -439 -542 -107 -209 -158
-385 -167 -590 -6 -105 -3 -142 15 -233 37 -185 86 -283 205 -405 103 -107
222 -176 366 -213 68 -17 281 -17 365 0 162 34 451 137 605 216 146 76 232
115 220 100 -10 -12 -10 -15 1 -15 9 -1 8 -4 -4 -11 -16 -9 -17 -13 -4 -27 8
-10 17 -25 20 -34 5 -13 0 -16 -26 -13 -18 2 -26 1 -19 -2 8 -3 5 -11 -10 -24
l-23 -20 33 16 c19 9 36 14 39 12 9 -9 -38 -28 -100 -42 l-62 -13 55 -26 c30
-14 49 -26 41 -26 -7 0 -11 -6 -7 -15 3 -9 -3 -19 -14 -25 -11 -6 -19 -15 -17
-21 1 -5 -11 -17 -27 -27 -27 -17 -28 -16 -45 8 -35 53 -58 73 -74 67 -15 -5
-17 -24 -17 -125 0 -109 -2 -123 -26 -168 -25 -47 -64 -97 -71 -91 -1 2 -8 39
-14 83 -15 109 -24 119 -38 43 -15 -83 -32 -152 -40 -161 -4 -4 -3 27 1 70 3
42 7 102 7 132 l0 55 -29 -82 c-15 -45 -41 -107 -56 -138 l-29 -57 -7 107 c-6
102 -18 156 -18 84 0 -76 -62 -250 -94 -262 -24 -9 -27 3 -20 97 l5 91 -44
-80 c-54 -99 -111 -187 -128 -202 -8 -5 -41 -13 -74 -17 -38 -4 -65 -13 -77
-25 -30 -33 -100 -35 -238 -6 -147 31 -247 63 -333 106 -299 152 -488 404
-574 772 -24 102 -27 128 -25 300 1 117 -2 187 -8 187 -6 0 -10 -5 -10 -12 0
-6 -2 -9 -5 -6 -8 8 13 101 42 193 31 96 104 255 160 347 71 116 208 290 295
373 139 135 336 265 478 317 112 40 126 36 60 -20z m3087 -106 c62 -20 136
-69 175 -117 33 -41 52 -139 27 -139 -15 0 -26 12 -60 69 -11 18 -22 32 -24
30 -2 -2 0 -23 5 -46 10 -57 -4 -54 -42 7 -17 28 -33 48 -35 46 -2 -2 5 -26
16 -53 l19 -50 -49 -2 c-27 -1 -69 -8 -93 -15 -51 -16 -247 -130 -274 -159
-17 -19 -17 -19 14 -4 31 16 84 29 84 21 0 -2 -21 -32 -46 -66 -57 -77 -66
-95 -103 -198 -38 -104 -71 -160 -121 -207 -22 -20 -38 -38 -35 -41 2 -3 11 1
20 8 8 7 22 10 30 6 9 -3 14 -2 11 3 -3 5 5 16 19 25 31 20 35 20 35 -2 0 -19
-38 -48 -59 -43 -7 1 -10 -2 -7 -8 7 -11 -32 -36 -42 -27 -3 3 1 6 8 6 7 0 11
2 8 5 -2 3 -19 -2 -36 -10 -36 -18 -184 -48 -210 -43 -13 3 -9 8 16 21 17 10
32 15 32 13 0 -3 43 40 95 95 52 54 95 104 95 110 0 6 -18 -7 -40 -29 -22 -22
-76 -59 -120 -81 -70 -37 -80 -40 -80 -24 0 11 -6 25 -12 32 -11 10 -9 14 7
23 61 35 178 178 160 196 -2 2 -25 -14 -52 -36 -26 -22 -63 -47 -80 -56 -84
-42 -82 -34 7 53 51 48 88 91 83 94 -4 3 -32 -3 -61 -13 -28 -10 -54 -15 -57
-11 -2 5 22 34 55 65 34 32 57 62 53 68 -4 7 -1 9 9 6 23 -9 42 6 26 20 -10 8
-24 3 -56 -19 -46 -31 -49 -31 -28 10 25 48 139 110 254 139 54 13 61 17 42
24 -13 5 -20 14 -17 22 3 8 -1 17 -9 20 -23 9 -16 22 14 23 54 1 58 2 43 12
-7 5 -39 7 -71 4 -35 -3 -60 -1 -64 5 -8 13 37 23 139 31 66 5 80 9 79 23 -1
12 11 18 50 22 29 4 58 5 66 2 8 -2 29 -7 45 -10 26 -5 27 -5 11 5 -46 28
-125 39 -285 39 -104 0 -161 4 -155 9 5 6 52 20 104 31 81 19 113 21 213 16
69 -4 142 -14 177 -25 66 -21 70 -12 10 19 -70 36 -166 53 -265 47 -80 -5
-193 -24 -250 -42 -42 -13 31 24 78 40 81 28 137 34 297 31 108 -3 171 -8 207
-20z m1480 -46 c87 -12 235 -42 303 -63 l45 -13 -63 -7 c-79 -9 -112 -17 -112
-28 0 -5 8 -9 19 -9 18 0 280 -66 366 -92 74 -22 153 -65 272 -148 121 -85
183 -137 183 -153 0 -5 -6 -4 -14 2 -19 16 -205 92 -241 99 -26 4 -16 -9 85
-112 99 -101 115 -122 116 -151 1 -30 -2 -33 -18 -24 -10 5 -18 17 -18 25 0 8
4 12 10 9 6 -4 7 1 3 11 -5 15 -7 15 -15 0 -5 -9 -6 -26 -2 -38 4 -12 -16 5
-43 37 -28 33 -46 62 -41 63 11 5 39 -18 34 -27 -2 -3 10 -7 27 -8 18 0 25 1
17 4 -8 3 -25 15 -38 26 -12 11 -37 26 -55 32 -17 7 -41 16 -52 21 -11 4 9
-23 44 -62 93 -102 204 -274 187 -291 -3 -4 -22 9 -41 27 -23 22 -35 29 -35
19 0 -8 4 -19 9 -24 5 -6 12 -21 16 -35 7 -24 6 -23 -26 8 -33 34 -87 67 -95
59 -3 -2 11 -28 31 -58 19 -29 35 -62 35 -73 0 -13 -7 -8 -26 20 -23 35 -79
94 -89 94 -2 0 -7 -6 -11 -12 -4 -7 -4 -10 1 -6 13 12 89 -132 83 -159 -2 -8
-30 11 -72 47 -38 33 -73 60 -78 60 -4 0 10 -23 31 -52 41 -54 69 -128 47
-128 -6 0 -21 15 -33 33 -53 76 -120 133 -300 256 -76 51 -99 73 -134 129 -23
37 -65 103 -93 147 -64 100 -200 234 -304 300 -83 52 -122 97 -122 140 0 22 4
25 38 26 27 1 30 3 12 6 -40 7 -46 20 -19 42 13 11 30 20 37 21 7 0 10 5 7 10
-8 13 33 13 132 0z m-370 -176 c233 -57 406 -186 561 -416 27 -40 55 -84 62
-98 l13 -24 -29 18 c-53 35 -64 43 -102 77 -20 19 -82 68 -137 109 -103 77
-127 99 -118 113 14 23 -135 93 -251 117 -41 8 -69 21 -90 42 l-31 29 53 -5
c52 -5 82 0 82 14 0 11 -80 32 -128 33 -22 1 -38 5 -35 10 7 12 39 8 150 -19z
m-1027 -113 c0 -8 -61 -22 -69 -15 -2 1 12 7 30 13 19 5 35 10 37 10 1 1 2 -3
2 -8z m696 -7 c18 -14 18 -14 -6 -3 -31 14 -36 19 -24 19 6 0 19 -7 30 -16z
m-605 -39 c8 4 -7 -14 -32 -41 -95 -101 -124 -182 -139 -389 -5 -77 -14 -155
-19 -173 -35 -118 -193 -242 -366 -287 -135 -35 -358 -8 -474 57 -99 54 -237
49 -366 -13 l-40 -20 25 22 c14 12 54 36 90 52 l65 31 205 3 c299 3 329 5 323
19 -2 7 6 14 19 17 21 4 21 4 -4 6 -15 0 -29 -3 -32 -8 -6 -9 -46 -22 -46 -16
0 2 17 12 38 21 105 48 214 182 272 333 21 55 36 102 33 105 -3 2 1 15 8 28 7
12 12 28 10 33 -1 6 3 5 10 -2 10 -10 9 -15 -1 -28 -7 -8 -10 -18 -7 -21 3 -3
34 32 70 78 71 91 127 148 127 130 0 -6 -4 -14 -10 -17 -5 -3 -10 -11 -10 -17
0 -5 13 3 29 18 15 16 46 39 67 52 30 18 23 9 -33 -42 -73 -68 -129 -156 -121
-193 3 -12 14 1 36 43 58 107 190 235 228 220 7 -3 14 0 14 7 0 8 3 8 9 -2 5
-8 14 -10 22 -6z m501 -17 c51 -48 82 -94 128 -187 23 -45 52 -94 66 -108 13
-13 22 -29 19 -34 -4 -5 1 -9 10 -9 9 0 14 -3 11 -8 -2 -4 3 -16 11 -27 11
-14 14 -15 10 -4 -4 13 1 15 24 13 l30 -4 -20 29 c-23 32 -27 46 -9 35 7 -4 8
-3 4 5 -4 6 -12 9 -17 6 -9 -6 -18 10 -23 37 -1 7 -5 19 -9 26 -5 7 -3 12 6
12 9 0 14 11 15 30 0 18 -4 29 -11 27 -8 -1 -12 12 -12 36 0 20 -4 37 -9 37
-4 0 -6 6 -3 14 3 8 1 17 -6 20 -9 5 -9 7 0 12 9 4 10 11 3 24 -8 15 -6 17 12
12 34 -8 68 -28 62 -35 -3 -3 0 -15 8 -26 8 -12 18 -18 22 -14 4 4 4 0 0 -10
-4 -10 -1 -17 6 -17 7 0 10 -7 6 -16 -3 -8 -2 -12 4 -9 6 3 13 -1 16 -9 3 -9
12 -16 20 -16 8 0 14 -4 14 -9 0 -6 12 -23 27 -38 14 -15 22 -21 18 -13 -8 13
-6 13 8 1 9 -7 15 -17 12 -21 -3 -4 21 -11 53 -14 31 -4 75 -9 96 -12 l40 -6
-19 28 c-10 16 -33 45 -52 64 -18 19 -31 40 -29 47 3 7 -1 10 -7 7 -7 -2 -27
11 -45 29 -31 32 -32 35 -13 40 14 3 18 1 14 -9 -4 -10 0 -12 11 -8 10 4 35
-8 66 -30 27 -20 56 -36 63 -36 7 0 18 -5 25 -12 15 -15 16 -3 2 23 -6 10 -8
19 -5 19 12 0 90 -58 114 -84 14 -14 29 -26 34 -26 5 0 32 -21 61 -47 42 -38
289 -207 440 -301 20 -12 34 -27 31 -32 -11 -17 -168 -12 -193 6 -13 9 -26 14
-29 10 -3 -3 20 -17 51 -32 31 -15 59 -30 62 -35 11 -19 -31 -21 -85 -4 -84
27 -90 27 -46 6 28 -14 34 -20 20 -20 -11 -1 -49 13 -84 29 -45 21 -60 25 -50
13 8 -9 -11 0 -41 21 -56 38 -120 70 -127 62 -2 -2 22 -24 54 -49 32 -25 72
-59 88 -77 l30 -33 -52 38 c-29 20 -81 45 -115 56 -70 21 -91 24 -68 9 12 -8
10 -10 -10 -11 l-25 -1 25 -7 c59 -18 151 -74 197 -118 27 -26 38 -39 24 -27
-90 73 -239 149 -258 131 -3 -3 14 -11 36 -18 64 -19 42 -21 -50 -5 -46 7 -87
12 -91 9 -5 -2 -8 1 -8 7 0 6 -4 9 -9 5 -10 -6 -145 25 -138 31 4 5 82 -10
112 -21 16 -5 17 -5 5 4 -8 6 -41 18 -72 27 -32 9 -58 21 -58 26 0 5 -6 8 -12
7 -7 -1 -26 3 -41 9 -16 7 -32 12 -36 12 -11 0 -161 151 -161 161 0 5 -9 9
-21 9 -13 0 -18 4 -13 13 5 8 2 7 -9 -2 -15 -12 -17 -12 -12 2 4 10 -1 17 -14
22 -12 3 -21 12 -21 20 0 23 12 45 21 39 12 -7 -3 30 -47 118 -40 80 -68 120
-78 113 -3 -3 -4 -2 -1 2 3 3 -7 21 -21 40 -33 44 -9 45 38 1z m188 17 c16
-19 1 -19 -24 0 -16 12 -17 15 -4 15 8 0 21 -7 28 -15z m-925 -14 c-34 -21
-125 -115 -125 -129 0 -5 -8 -16 -17 -23 -14 -11 -13 -6 4 23 19 31 19 36 5
31 -9 -3 2 13 26 36 23 23 47 39 52 36 6 -4 10 -2 10 4 0 6 12 17 28 25 39 22
53 19 17 -3z m335 -10 c0 -16 -22 -71 -28 -71 -4 0 -8 11 -8 25 -1 14 2 25 7
25 5 0 9 5 9 11 0 5 -5 7 -12 3 -7 -4 -8 -3 -4 4 8 14 36 16 36 3z m846 -15
c8 -8 11 -17 6 -20 -4 -2 -13 4 -20 15 -14 22 -7 25 14 5z m-812 -36 c1 -16
-3 -30 -7 -30 -17 0 21 -258 53 -364 48 -154 100 -236 185 -293 79 -52 235
-93 350 -92 l70 1 -80 12 c-115 18 -199 49 -285 104 -124 80 -180 165 -225
343 -15 56 -31 141 -36 188 -5 48 -12 100 -15 116 -4 23 -2 26 5 14 6 -9 26
-78 45 -155 61 -247 100 -330 200 -429 116 -114 228 -163 395 -172 l106 -7
-90 -23 c-155 -39 -269 -28 -413 43 -116 57 -166 110 -243 260 -47 92 -56 121
-69 227 -12 95 -1 190 28 259 18 42 25 41 26 -2z m283 -68 c-8 -11 -12 -11
-18 0 -5 7 -9 22 -9 32 0 19 0 19 19 0 13 -14 16 -23 8 -32z m508 30 c-3 -3
-11 0 -18 7 -9 10 -8 11 6 5 10 -3 15 -9 12 -12z m-440 -33 c9 -17 14 -36 11
-42 -2 -7 -8 -1 -12 11 -4 15 -9 20 -14 12 -4 -6 -7 2 -6 19 1 17 2 31 3 31 1
0 10 -14 18 -31z m189 15 c3 -8 2 -12 -4 -9 -6 3 -10 10 -10 16 0 14 7 11 14
-7z m-234 -35 c0 -11 -4 -17 -10 -14 -5 3 -10 1 -10 -6 0 -7 -3 -10 -6 -7 -6
6 13 48 21 48 3 0 5 -9 5 -21z m-1596 -54 c-4 -8 -10 -12 -15 -9 -5 3 -9 1 -9
-3 0 -5 -10 -14 -22 -21 -15 -8 -11 -2 10 17 36 35 44 38 36 16z m1617 -32
c-8 -15 -10 -15 -11 -2 0 17 10 32 18 25 2 -3 -1 -13 -7 -23z m-16 -36 c4 -33
20 -73 35 -87 3 -3 11 -18 18 -35 12 -28 11 -29 -4 -10 -36 45 -95 208 -65
179 6 -6 14 -27 16 -47z m118 13 c3 -11 1 -18 -4 -14 -5 3 -9 12 -9 20 0 20 7
17 13 -6z m28 6 c5 3 9 0 9 -6 0 -15 -23 -7 -26 8 -1 7 0 8 3 2 2 -5 9 -8 14
-4z m-121 -41 c0 -8 -2 -15 -4 -15 -2 0 -6 7 -10 15 -3 8 -1 15 4 15 6 0 10
-7 10 -15z m1827 -32 c18 -24 35 -53 30 -53 -3 0 -17 16 -31 35 -15 19 -24 35
-20 35 4 0 13 -8 21 -17z m-2815 -50 c-5 -10 -7 -25 -5 -33 4 -12 3 -12 -5 -2
-7 11 -10 11 -15 -2 -4 -9 -1 -16 5 -16 6 0 9 -3 5 -6 -3 -3 -10 -3 -16 1 -7
4 -3 20 11 45 22 38 39 49 20 13z m1048 -13 c0 -5 -2 -10 -4 -10 -3 0 -8 5
-11 10 -3 6 -1 10 4 10 6 0 11 -4 11 -10z m163 -26 c10 -13 13 -24 8 -24 -5 0
-16 9 -24 21 l-15 20 -17 -23 c-13 -16 -16 -18 -11 -5 3 10 6 25 6 32 0 20 32
7 53 -21z m-1253 -40 c0 -8 -4 -12 -10 -9 -5 3 -10 -2 -10 -12 -1 -17 -1 -17
-11 -1 -7 13 -6 22 3 32 15 16 28 11 28 -10z m1291 -11 c13 -16 12 -17 -3 -4
-10 7 -18 15 -18 17 0 8 8 3 21 -13z m59 -47 c0 -2 -7 -7 -16 -10 -8 -3 -12
-2 -9 4 6 10 25 14 25 6z m-55 -16 c4 -6 -9 -10 -32 -9 -30 0 -34 2 -18 9 27
12 43 12 50 0z m1846 -41 c35 -12 69 -24 74 -29 6 -4 27 -13 49 -20 29 -9 35
-15 25 -22 -11 -8 -10 -9 3 -5 19 7 172 -65 162 -76 -4 -4 -13 -2 -20 4 -9 8
-12 6 -9 -8 2 -10 4 -20 4 -22 1 -3 6 0 13 7 17 17 38 15 55 -5 8 -10 11 -12
7 -4 -5 9 -3 12 4 7 7 -4 12 -14 12 -21 0 -8 6 -12 14 -9 8 3 24 -4 35 -15 12
-12 24 -21 28 -20 4 0 9 -5 12 -12 2 -6 -1 -9 -7 -5 -6 3 -13 2 -16 -2 -3 -5
9 -8 26 -8 25 1 35 -5 45 -24 7 -14 13 -19 13 -12 0 7 5 10 10 7 7 -4 7 -13 0
-25 -9 -16 -8 -18 6 -13 13 5 15 3 9 -7 -5 -8 -4 -11 3 -6 6 4 8 14 5 24 -6
15 -5 15 10 3 9 -7 14 -17 11 -22 -3 -5 3 -6 13 -2 16 6 17 5 3 -12 -13 -17
-13 -18 0 -13 23 8 63 -10 54 -24 -4 -7 -4 -10 1 -6 12 11 120 -75 120 -96 1
-6 6 -10 12 -9 6 1 21 -9 34 -23 l24 -26 -25 6 c-174 37 -264 64 -225 67 17 1
16 2 -5 9 -25 8 -25 8 5 10 19 2 24 4 12 7 -18 5 -18 5 0 19 17 14 17 14 -4 5
-12 -6 -29 -8 -37 -5 -12 5 -15 2 -10 -10 3 -9 1 -16 -5 -16 -6 0 -11 5 -11
11 0 5 -4 8 -9 5 -5 -4 -7 3 -4 14 4 15 2 19 -10 14 -8 -3 -29 2 -46 10 -29
15 -30 15 -24 -1 6 -16 5 -16 -9 -5 -9 7 -29 17 -45 21 -15 5 -27 13 -26 19 2
7 -4 9 -13 5 -13 -5 -8 -12 22 -30 22 -14 32 -22 24 -20 -8 3 -32 11 -52 18
-36 12 -52 29 -26 29 6 0 8 3 5 6 -4 4 -14 1 -24 -7 -15 -12 -16 -12 -10 4 4
11 1 17 -9 17 -8 0 -12 -5 -8 -11 3 -6 -16 1 -42 15 -27 14 -54 26 -61 26 -6
0 -18 9 -26 20 -10 14 -20 18 -32 14 -13 -5 -16 -4 -11 4 4 8 2 10 -7 6 -8 -3
-21 1 -28 8 -8 7 -23 14 -33 16 -42 8 -66 33 -67 71 0 34 -27 145 -43 184 -10
22 -3 22 75 -4z m-1717 -29 c49 -16 134 -39 190 -51 191 -40 261 -59 313 -85
48 -23 56 -32 93 -106 22 -44 40 -87 40 -96 0 -9 -11 7 -25 35 -55 110 -151
165 -326 186 -55 6 -99 15 -99 19 0 10 -79 30 -96 24 -8 -3 -14 -1 -14 5 0 7
-15 9 -37 7 -23 -3 -47 1 -60 10 -13 8 -30 11 -39 8 -12 -5 -15 -2 -10 9 3 10
2 13 -5 9 -6 -3 -19 3 -30 15 -11 12 -24 21 -30 21 -6 0 -8 4 -4 9 3 5 -3 12
-12 14 -10 2 0 3 22 0 21 -2 79 -17 129 -33z m707 -86 c8 -10 -4 -5 -28 11
-24 15 -43 29 -43 32 0 8 57 -27 71 -43z m-256 6 c3 -6 -1 -7 -9 -4 -18 7 -21
14 -7 14 6 0 13 -4 16 -10z m743 -165 c-3 -3 -9 2 -12 12 -6 14 -5 15 5 6 7
-7 10 -15 7 -18z m-3498 -9 c0 -2 -17 -16 -37 -31 l-38 -26 35 30 c34 31 40
35 40 27z m2170 -82 c-25 -8 -85 -17 -135 -19 l-90 -4 103 14 c57 7 111 16
120 18 41 11 43 4 2 -9z m1290 -49 c0 -30 -2 -32 -22 -27 -19 5 -20 7 -5 10 9
2 15 8 11 13 -3 5 -10 7 -15 4 -5 -4 -4 5 2 19 15 33 29 24 29 -19z m-431 -47
c-30 -16 -45 -26 -34 -24 77 19 155 26 203 20 96 -12 103 -19 36 -36 l-59 -16
80 -1 c44 0 100 4 125 9 25 4 52 4 60 0 15 -9 6 -14 -90 -52 l-25 -11 30 -9
c17 -5 85 -7 152 -4 100 5 121 3 117 -8 -10 -25 -57 -41 -120 -41 l-62 0 56
-31 c32 -17 79 -44 107 -60 27 -15 70 -33 95 -40 l45 -11 -34 -18 c-27 -14
-39 -15 -59 -6 -25 12 -25 12 4 -23 29 -34 50 -45 132 -66 57 -15 44 -34 -19
-28 -27 3 -49 1 -49 -4 0 -6 25 -34 55 -64 58 -58 91 -101 83 -110 -3 -2 -29
12 -58 31 -76 51 -78 52 -44 14 71 -78 124 -163 111 -176 -3 -2 -30 22 -61 54
l-56 57 26 -64 c27 -64 29 -80 39 -235 l5 -80 -26 70 c-15 39 -33 79 -40 90
-12 17 -14 10 -15 -60 0 -54 -3 -74 -9 -60 -5 11 -9 14 -9 7 -1 -7 6 -24 15
-37 14 -21 15 -40 8 -123 -4 -53 -10 -86 -12 -72 -2 13 -11 29 -19 36 -9 6
-17 23 -19 37 -6 60 -78 126 -195 182 -208 98 -417 63 -546 -92 -66 -79 -110
-155 -137 -238 -15 -45 -37 -91 -53 -107 -14 -15 -25 -30 -22 -32 2 -2 38 16
79 40 72 43 77 44 160 44 84 0 191 -20 216 -41 7 -6 37 -13 67 -16 65 -7 136
20 163 62 l18 28 8 -28 c8 -33 -3 -45 -72 -77 -62 -29 -127 -26 -254 11 -59
18 -110 31 -111 29 -2 -2 52 -33 121 -68 116 -60 130 -65 190 -65 70 0 80 6
125 75 l16 24 31 -66 c36 -75 40 -126 15 -190 -47 -124 -141 -178 -309 -179
-95 -1 -117 7 -234 83 -83 55 -141 108 -172 158 -49 81 -79 143 -74 156 3 8 1
14 -4 14 -28 0 24 233 93 410 35 91 166 270 198 270 6 0 7 5 4 10 -3 6 1 10 9
10 9 0 16 4 16 9 0 20 129 51 211 51 81 0 159 -15 159 -32 0 -4 9 -8 20 -8 11
0 19 -3 18 -7 -1 -5 18 -28 43 -53 31 -30 53 -65 68 -105 22 -60 46 -95 63
-95 10 0 2 80 -12 132 -12 41 -7 45 20 18 15 -15 20 -29 16 -46 -5 -17 -2 -24
8 -24 7 0 13 8 12 18 0 9 5 16 12 15 6 -2 12 2 12 7 0 6 -4 10 -8 10 -5 0 -15
18 -22 40 -18 53 -56 106 -64 88 -3 -7 -3 -3 -1 8 7 27 -47 72 -132 111 -70
32 -203 43 -292 23 -106 -23 -221 -82 -294 -149 -24 -22 -29 -23 -38 -11 -9
12 -10 12 -5 -3 3 -11 -8 -35 -31 -65 -20 -26 -59 -96 -88 -157 -81 -171 -84
-178 -104 -213 -36 -62 -50 -72 -105 -72 -37 0 -47 3 -36 10 8 5 24 10 35 10
11 1 34 7 50 15 l30 13 -36 -5 c-35 -5 -116 13 -106 24 3 2 -25 34 -63 71 -69
69 -103 122 -115 182 l-6 35 21 -42 c22 -42 87 -109 97 -99 3 3 -9 28 -27 56
-38 59 -55 148 -26 137 21 -8 21 -5 -9 51 -14 26 -25 54 -25 62 0 8 9 -4 20
-27 27 -61 34 -53 9 10 -16 39 -20 68 -17 119 2 37 9 73 15 79 7 7 9 4 7 -13
-5 -26 11 -57 23 -45 4 5 10 41 14 80 3 40 12 92 19 117 l13 45 13 -45 c11
-42 12 -43 13 -13 1 40 45 159 71 193 l19 25 -6 -45 -5 -45 46 67 c38 56 137
148 159 148 3 0 1 -14 -4 -32 -5 -17 -7 -34 -5 -36 3 -2 10 15 17 37 7 23 19
47 27 54 13 10 14 9 4 -10 -21 -39 -12 -38 18 4 30 41 40 48 94 64 27 8 28 7
12 -10 -16 -18 -12 -56 5 -45 14 8 11 26 -3 18 -7 -4 -10 -4 -6 0 3 4 9 7 13
6 3 0 20 10 36 24 17 15 43 26 57 27 15 0 36 4 46 8 11 4 31 5 44 3 23 -5 20
-8 -29 -34z m-3129 -126 c38 -32 80 -56 80 -47 0 3 -7 17 -16 31 -25 37 -11
39 28 5 19 -16 62 -43 95 -58 65 -30 172 -102 173 -116 0 -5 -16 1 -36 13 -66
41 -46 12 23 -34 37 -24 79 -57 93 -71 l25 -26 -48 20 c-27 12 -51 21 -53 21
-12 0 1 -22 41 -69 49 -57 57 -78 24 -61 -30 17 -34 6 -5 -14 14 -9 30 -25 36
-36 10 -18 8 -18 -20 -8 -17 6 -33 8 -36 6 -2 -3 13 -25 34 -49 35 -39 62 -89
48 -89 -2 0 -17 5 -33 11 l-28 10 33 -33 c40 -42 40 -48 2 -48 -28 0 -29 -1
-18 -25 12 -28 48 -54 87 -64 22 -6 17 -10 -38 -25 -54 -15 -61 -19 -50 -33 7
-8 25 -20 39 -25 28 -11 30 -9 -47 -38 -30 -11 -46 -40 -23 -40 6 0 10 -4 10
-8 0 -27 -78 11 -117 57 -19 22 -22 23 -23 8 0 -34 21 -59 72 -82 47 -22 52
-44 5 -30 -33 10 -9 -12 50 -46 36 -21 44 -29 31 -34 -9 -4 -26 -2 -37 5 -12
6 -21 7 -20 3 4 -22 -4 -32 -32 -42 -42 -15 -82 -14 -98 2 -12 10 -13 8 -7 -8
6 -18 5 -18 -8 -5 -16 16 -108 282 -94 274 4 -3 8 -3 8 0 0 2 3 12 7 22 5 13
3 15 -7 9 -9 -5 -11 -4 -6 3 9 14 -58 106 -110 151 -21 18 -72 49 -112 69 -61
29 -84 35 -145 36 -69 1 -157 -19 -157 -35 0 -4 -9 -11 -20 -14 -11 -4 -18
-10 -16 -14 3 -4 -31 -31 -75 -60 -82 -55 -97 -74 -130 -165 -9 -28 -18 -43
-18 -33 -2 38 42 193 65 234 30 51 52 68 29 22 l-17 -34 36 38 c20 21 36 39
36 41 0 1 -16 3 -36 4 -28 1 -44 -7 -81 -41 -31 -28 -44 -35 -39 -22 4 11 17
44 28 73 11 29 39 82 63 118 24 35 39 64 34 64 -14 0 -139 -132 -139 -147 0
-7 -5 -13 -11 -13 -16 0 0 39 42 101 42 62 78 96 139 130 22 13 40 26 40 29 0
3 -27 4 -60 2 -33 -2 -60 0 -60 4 0 5 36 22 80 38 44 15 96 37 116 47 l36 18
-26 6 c-14 3 -36 7 -49 10 -24 5 -120 65 -114 71 2 2 26 -2 53 -10 51 -15 145
-22 252 -18 l64 2 -26 31 c-37 43 -32 54 11 28 24 -15 38 -19 41 -11 2 7 18 2
44 -14 22 -14 56 -28 74 -31 l35 -6 -36 36 c-56 56 -45 78 15 29z m5655 -46
c22 -19 37 -37 34 -40 -6 -7 -122 89 -128 106 -4 13 34 -14 94 -66z m-4640
-256 c3 -5 -1 -20 -9 -32 -30 -47 21 -170 84 -203 16 -9 30 -13 30 -11 0 10
86 -25 97 -40 10 -14 19 -13 82 12 38 15 69 30 67 33 -2 3 18 7 46 8 27 1 55
7 62 12 7 6 27 8 45 5 19 -4 37 -2 46 6 9 8 27 10 47 6 18 -4 50 -7 70 -6 109
2 192 -101 205 -255 6 -76 -2 -139 -16 -117 -6 10 -10 10 -18 0 -15 -18 -11
-78 6 -105 15 -21 15 -21 44 15 57 72 60 86 54 210 -5 90 -11 125 -30 165 -32
70 -90 133 -155 169 -29 17 -52 32 -50 33 2 2 38 -6 82 -16 43 -11 80 -18 83
-15 7 7 -106 46 -153 53 -72 10 -50 23 39 23 58 0 94 -6 122 -19 62 -28 167
-99 199 -133 25 -28 29 -30 38 -15 6 12 5 22 -6 33 -9 8 -21 23 -28 33 -7 9
-58 39 -112 67 -99 49 -100 49 -197 49 -97 0 -98 0 -66 16 78 40 166 32 304
-27 71 -30 88 -35 106 -25 l22 12 -22 -5 c-13 -2 -26 0 -29 5 -3 5 3 10 13 10
15 1 16 2 1 6 -9 2 -19 10 -21 17 -4 10 9 7 44 -7 45 -19 47 -22 33 -38 -8 -9
-31 -20 -51 -24 l-36 -6 37 -30 c40 -34 42 -42 21 -83 -9 -16 -12 -32 -8 -35
26 -19 73 -85 73 -102 0 -11 -4 -18 -8 -15 -5 3 -10 -15 -10 -40 -2 -35 4 -54
26 -87 16 -23 46 -73 67 -112 77 -142 123 -196 194 -229 29 -13 48 -27 42 -30
-5 -4 -12 -2 -16 4 -12 20 -21 10 -17 -19 2 -16 -1 -32 -7 -35 -20 -13 -11
-26 18 -26 23 0 38 -10 66 -44 l36 -44 -7 -84 c-8 -101 6 -196 47 -325 17 -54
31 -113 31 -133 0 -28 -8 -123 -11 -139 -1 -2 -8 2 -17 9 -8 8 -14 9 -13 4 2
-9 -2 -23 -22 -72 -7 -19 -14 -21 -41 -17 -26 4 -29 3 -15 -5 9 -6 17 -20 17
-31 0 -18 -5 -20 -42 -15 -24 2 -52 7 -63 11 -11 4 -5 -3 13 -15 18 -13 31
-24 28 -27 -6 -7 -89 19 -106 33 -25 20 -192 106 -197 100 -5 -4 82 -62 136
-90 34 -18 51 -44 43 -66 -4 -11 0 -10 13 3 9 10 20 15 23 12 3 -3 -3 -12 -14
-20 -11 -8 -14 -15 -6 -15 6 0 12 -4 12 -10 0 -5 -39 17 -88 49 -78 52 -165
102 -152 88 3 -3 32 -27 66 -54 115 -91 249 -205 257 -219 11 -19 2 -18 -17 2
-12 12 -16 12 -16 2 -1 -8 -5 -7 -14 5 -8 10 -17 18 -20 17 -8 -1 -66 29 -66
35 0 2 8 2 18 -2 14 -5 13 -3 -3 10 -11 9 -28 17 -38 17 -10 0 -15 5 -12 10 3
6 -1 10 -10 10 -9 0 -13 -5 -10 -10 4 -6 -4 -5 -19 1 -14 7 -23 16 -19 22 3 6
1 7 -4 4 -6 -4 -57 11 -114 32 -174 65 -375 105 -596 117 -120 7 -144 16 -82
29 24 6 28 9 18 17 -9 6 25 8 101 4 107 -5 217 -24 350 -61 62 -17 89 -19 75
-7 -18 16 -241 75 -348 92 -79 12 -249 14 -373 4 -65 -5 -85 -4 -80 5 4 6 1
11 -8 11 -23 0 -28 15 -52 150 l-22 125 -1 -77 c-1 -49 6 -98 18 -137 l19 -61
-22 0 c-16 0 -18 -2 -7 -9 9 -6 -7 -11 -48 -16 -34 -4 -65 -4 -68 -1 -4 3 2 6
12 6 18 0 18 1 0 14 -19 13 -18 16 21 53 63 59 67 73 53 153 -7 38 -17 66 -21
64 -13 -9 -9 87 5 100 7 7 41 28 76 47 46 25 69 45 86 74 27 48 38 90 30 116
-9 26 -25 13 -61 -49 -33 -56 -43 -67 -114 -120 -30 -23 -70 -54 -87 -68 -53
-43 -40 -6 25 72 31 38 68 84 81 103 l24 33 -16 82 c-11 57 -13 94 -7 121 12
52 5 56 -11 8 -7 -21 -14 -80 -14 -131 l-1 -92 -61 -62 c-34 -34 -65 -59 -69
-55 -4 4 10 34 30 67 l37 60 -16 45 c-8 25 -15 53 -16 63 0 14 -2 14 -8 -3 -5
-11 -18 -20 -34 -20 -25 -2 -66 -28 -114 -74 -13 -12 -23 -18 -23 -14 0 4 -7
-2 -15 -13 -8 -10 -15 -14 -15 -8 0 6 30 42 66 80 36 38 80 92 97 119 17 28
33 52 36 55 4 3 17 25 30 50 34 64 79 109 118 116 38 7 43 19 11 27 -32 9 -46
-2 -162 -125 -58 -61 -106 -108 -106 -104 0 4 7 14 15 23 8 8 12 19 9 24 -3 6
2 19 12 30 29 32 10 31 -34 -2 -51 -37 -71 -30 -40 14 12 18 28 36 35 40 7 5
11 12 8 18 -3 5 0 6 8 3 8 -3 18 0 23 7 4 8 3 10 -4 5 -7 -4 -12 -3 -12 1 0 5
10 14 23 22 57 34 147 108 153 124 5 16 9 14 30 -16 29 -43 82 -77 120 -77 16
0 49 -9 73 -20 49 -23 61 -24 61 -9 0 5 -6 7 -12 3 -10 -6 -10 -4 0 8 11 14
10 17 -8 23 -16 5 -18 10 -10 20 8 9 8 15 0 20 -5 3 -10 11 -10 17 0 6 12 3
26 -7 15 -9 25 -13 22 -8 -2 4 -12 27 -22 51 -10 23 -24 42 -32 42 -8 0 -14 5
-14 12 0 6 -3 9 -6 6 -3 -4 2 -18 11 -32 26 -40 0 -31 -32 11 -33 43 -38 105
-11 143 43 60 49 73 18 40 -34 -37 -60 -88 -60 -117 0 -28 44 -110 56 -106 6
2 17 -4 25 -14 12 -15 12 -16 -1 -8 -21 13 -71 15 -64 3 11 -17 -30 9 -52 34
-53 58 -63 135 -27 207 12 25 20 47 18 50 -10 9 -69 -67 -92 -119 -15 -34 -22
-44 -20 -27 3 22 0 27 -17 27 -16 0 -18 2 -7 9 7 5 10 14 6 20 -11 19 -32 -15
-51 -82 -15 -52 -50 -97 -74 -97 -14 0 -20 30 -10 55 13 34 3 32 -61 -13 -30
-22 -67 -42 -84 -46 -25 -6 -16 7 64 81 80 76 211 223 211 238 0 14 -88 -45
-159 -106 -48 -43 -85 -68 -92 -63 -8 4 -9 3 -5 -4 4 -7 1 -12 -9 -12 -10 0
-13 -5 -9 -12 4 -7 3 -8 -4 -4 -9 5 -9 13 -1 28 8 15 8 19 0 14 -48 -30 59
124 127 181 34 29 60 53 58 53 -6 0 -77 -33 -106 -50 -27 -15 -26 -14 -140
-25 -73 -7 -74 -7 -51 10 13 10 73 40 134 66 60 27 113 51 116 55 5 6 -29 2
-118 -13 -23 -4 -32 -2 -27 5 4 8 -4 10 -28 7 -19 -3 -49 2 -68 11 -32 15 -13
14 27 -1 18 -7 18 -6 -3 14 -12 12 -27 19 -32 16 -5 -3 -8 0 -5 7 4 9 28 13
86 12 55 -1 99 4 133 15 l51 18 -61 5 c-48 5 -67 11 -87 32 -21 21 -23 26 -9
27 11 1 9 3 -6 7 -13 4 38 8 112 9 78 2 137 -1 141 -7z m-3699 -218 c-4 -3 -6
0 -6 7 0 7 -3 10 -7 8 -5 -3 -8 9 -9 26 l-1 32 14 -34 c8 -18 12 -36 9 -39z
m4558 -43 c39 -70 56 -141 54 -224 l-1 -70 -9 75 c-17 134 -28 177 -63 235
-19 32 -29 52 -22 46 8 -6 26 -34 41 -62z m-4499 -68 c-3 -3 -10 1 -14 8 -5 7
-13 11 -19 7 -7 -4 -9 5 -7 25 3 24 2 29 -9 20 -9 -8 -13 -7 -13 4 0 8 4 12 9
9 4 -3 8 1 8 8 0 7 12 -7 25 -31 14 -24 23 -46 20 -50z m5012 57 c-3 -8 -6 -5
-6 6 -1 11 2 17 5 13 3 -3 4 -12 1 -19z m-2837 -58 c-8 -5 -17 -7 -19 -4 -3 3
1 9 9 14 8 5 17 7 19 4 3 -3 -1 -9 -9 -14z m-1999 -217 c30 -29 48 -53 42 -53
-7 0 -13 5 -13 11 0 6 -7 8 -16 5 -8 -3 -12 -2 -9 3 3 5 -17 33 -44 61 -30 32
-51 48 -55 41 -4 -6 -4 -17 0 -23 4 -7 -2 -4 -13 7 -15 14 -18 24 -10 33 5 7
7 16 3 19 -4 4 -10 2 -14 -4 -5 -9 -12 -6 -21 8 -7 12 -8 18 -3 15 6 -3 12 1
16 9 3 8 1 15 -4 15 -6 0 -10 7 -10 15 0 8 -4 15 -10 15 -5 0 -10 7 -10 16 0
9 26 -20 58 -63 32 -43 83 -102 113 -130z m1959 187 c0 -5 -4 -10 -10 -10 -5
0 -10 5 -10 10 0 6 5 10 10 10 6 0 10 -4 10 -10z m11 -35 c-17 -20 -31 -41
-31 -47 0 -6 -3 -9 -6 -6 -8 9 15 49 40 70 32 27 31 22 -3 -17z m-2131 -5 c0
-5 -2 -10 -4 -10 -3 0 -8 5 -11 10 -3 6 -1 10 4 10 6 0 11 -4 11 -10z m2080
-45 c6 -15 6 -34 0 -47 -7 -20 -8 -18 -8 13 1 20 -2 41 -6 47 -4 7 -5 12 -1
12 3 0 10 -11 15 -25z m-1986 -80 c-4 -8 -11 -12 -16 -9 -6 4 -5 10 3 15 19
12 19 11 13 -6z m2390 -16 c44 -21 51 -30 67 -76 10 -29 16 -53 15 -53 -2 0
-30 12 -62 28 -55 25 -69 27 -184 27 -124 0 -126 0 -205 -37 -69 -33 -76 -35
-50 -13 17 14 48 38 70 53 22 15 47 35 55 44 8 10 33 27 55 38 56 29 170 23
239 -11z m3530 -28 c11 -12 16 -31 14 -52 -2 -28 -8 -35 -35 -43 -64 -18 -110
48 -66 96 21 23 65 23 87 -1z m-4634 -78 c70 -34 203 -62 305 -64 46 -1 53 -3
30 -8 -29 -7 -29 -7 -7 -15 12 -4 20 -12 16 -17 -3 -5 11 -28 31 -52 34 -39
36 -46 30 -87 -15 -106 -77 -126 -199 -66 -39 20 -89 49 -111 65 -22 16 -80
55 -130 87 l-90 59 -165 2 c-103 2 -186 8 -220 17 -54 14 -51 14 128 15 183 1
263 -9 290 -36 7 -7 17 -13 20 -13 4 0 32 -20 62 -45 30 -24 56 -42 59 -39 3
2 -17 27 -44 54 -42 42 -67 57 -167 96 -110 43 -137 58 -125 70 3 3 34 -2 69
-11 92 -24 158 -34 158 -23 0 5 -5 19 -11 30 -6 11 -7 18 -2 16 4 -2 37 -18
73 -35z m1667 11 c-3 -3 -12 -4 -19 -1 -8 3 -5 6 6 6 11 1 17 -2 13 -5z m3272
-17 c6 -8 7 -18 3 -22 -4 -5 -2 -5 4 -2 6 4 18 -1 26 -11 24 -27 28 -39 15
-39 -7 0 -19 -4 -28 -7 -10 -4 -19 -2 -22 6 -3 7 -12 30 -21 51 -13 31 -14 37
-2 37 7 0 19 -6 25 -13z m1708 7 c-3 -3 -12 -4 -19 -1 -8 3 -5 6 6 6 11 1 17
-2 13 -5z m-5612 -99 c0 -37 -2 -40 -29 -43 -31 -4 -46 10 -46 44 0 28 20 45
50 42 22 -3 25 -8 25 -43z m3944 -16 c-7 -4 -17 -5 -22 -2 -5 3 -3 9 4 14 7 4
17 5 22 2 5 -3 3 -9 -4 -14z m-5506 -19 c-26 -11 -174 -32 -181 -26 -2 3 13 8
34 11 22 4 53 11 69 15 17 5 46 8 65 8 30 1 32 -1 13 -8z m5293 -37 c-8 -15
-15 -25 -16 -21 0 12 23 58 27 54 3 -2 -2 -17 -11 -33z m-3451 -13 c12 19 22
10 53 -51 32 -61 37 -93 26 -136 -6 -21 -8 -20 -36 18 -30 42 -41 66 -63 137
-11 36 -11 41 0 32 9 -8 15 -8 20 0z m2998 -31 c-8 -8 -16 -8 -30 0 -16 9 -14
10 12 11 21 0 26 -3 18 -11z m744 -36 c-3 -10 -5 -4 -5 12 0 17 2 24 5 18 2
-7 2 -21 0 -30z m-3091 -1 c-18 -16 -18 -16 -6 6 6 13 14 21 18 18 3 -4 -2
-14 -12 -24z m4521 2 c-3 -3 -12 -4 -19 -1 -8 3 -5 6 6 6 11 1 17 -2 13 -5z
m78 -4 c-26 -11 -68 -12 -61 -2 2 4 22 8 43 9 29 0 33 -1 18 -7z m-4641 -70
c-15 -28 -29 -48 -32 -46 -5 6 46 96 54 96 3 0 -7 -23 -22 -50z m-975 -75 c0
-5 -6 -1 -14 9 -8 11 -15 24 -15 30 0 5 7 1 15 -10 8 -10 14 -23 14 -29z m318
14 c22 -8 25 -12 13 -18 -23 -13 -141 -31 -153 -24 -6 3 -7 2 -4 -4 3 -5 -14
-19 -39 -31 -45 -22 -83 -30 -54 -12 12 8 12 10 -5 11 -12 0 -6 5 15 11 19 5
46 18 60 27 31 22 99 50 122 50 9 1 29 -4 45 -10z m5562 -11 c13 -5 21 -11 18
-14 -3 -3 -14 -1 -25 5 -30 16 -57 15 -44 -2 6 -7 7 -18 3 -25 -5 -9 -11 -5
-19 13 -8 16 -8 25 -1 25 6 0 7 5 3 11 -7 11 10 8 65 -13z m-110 -39 c45 -43
84 -165 79 -254 l-3 -60 -28 90 c-36 112 -84 204 -114 218 -17 8 -20 13 -11
19 23 14 54 9 77 -13z m-5476 -60 c32 -17 38 -30 31 -68 -22 -126 -194 -301
-295 -301 -47 0 -69 40 -69 125 0 105 8 136 34 134 43 -4 62 2 91 27 98 85
158 109 208 83z m5416 1 c24 -12 48 -73 57 -141 9 -71 -8 -59 -51 36 -18 41
-43 80 -54 87 -12 7 -21 16 -21 20 0 11 48 10 69 -2z m160 -50 c0 -10 -3 -8
-9 5 -12 27 -12 43 0 25 5 -8 9 -22 9 -30z m-195 -30 c20 -22 37 -43 37 -48 9
-50 4 -49 -57 14 -35 36 -64 67 -64 69 0 3 11 5 24 5 15 0 37 -15 60 -40z
m-137 -49 c35 -22 84 -89 101 -140 27 -78 5 -211 -40 -249 -14 -11 -16 -1 -17
80 -3 144 -21 203 -82 273 -46 51 -23 73 38 36z m-102 -95 c30 -30 57 -119 49
-166 -10 -62 -28 -119 -36 -114 -4 3 -13 -7 -18 -23 -23 -63 -46 -103 -56 -99
-6 3 -17 -1 -24 -7 -10 -10 -10 -7 -1 11 6 12 15 22 20 22 15 0 41 103 41 164
0 76 -25 132 -76 174 -47 39 -25 43 28 6 40 -28 74 -75 88 -122 l8 -27 1 26
c1 33 -47 100 -99 138 -33 24 -37 30 -23 34 44 11 75 6 98 -17z m-156 -76 c36
-25 80 -107 87 -163 8 -58 0 -103 -29 -150 l-23 -37 0 107 c-1 125 -20 182
-82 246 -37 38 -37 38 -8 27 16 -6 41 -19 55 -30z m260 -40 c0 -10 -3 -8 -9 5
-12 27 -12 43 0 25 5 -8 9 -22 9 -30z m-4222 -47 c-3 -10 -5 -4 -5 12 0 17 2
24 5 18 2 -7 2 -21 0 -30z m56 -27 c-3 -14 -16 -35 -30 -48 l-26 -23 13 25
c15 29 41 70 45 70 1 0 0 -11 -2 -24z m100 -153 c-7 -2 -19 -2 -25 0 -7 3 -2
5 12 5 14 0 19 -2 13 -5z m3158 -130 c103 -159 172 -396 167 -572 l-3 -96 -13
94 c-13 98 -51 205 -170 486 -72 171 -74 178 -62 170 6 -3 10 -1 10 4 0 21 8
11 71 -86z m-2934 61 c-3 -3 -12 -4 -19 -1 -8 3 -5 6 6 6 11 1 17 -2 13 -5z
m363 -69 c242 -40 459 -123 610 -235 118 -87 261 -252 318 -365 11 -22 32 -78
47 -125 26 -79 28 -101 35 -330 7 -207 11 -255 29 -310 55 -170 185 -300 271
-268 33 12 36 3 6 -17 -14 -9 -48 -18 -76 -18 -52 -2 -71 -16 -22 -18 22 0 24
-2 8 -8 -16 -6 -13 -11 24 -38 23 -18 47 -30 54 -29 6 2 8 1 4 -1 -5 -3 17
-27 47 -55 31 -28 54 -53 51 -55 -2 -2 -36 12 -75 31 -39 20 -78 36 -88 35
-10 0 -1 -9 22 -20 22 -10 29 -16 16 -13 l-24 6 26 -33 c40 -54 97 -233 68
-214 -6 3 -11 13 -11 20 0 21 -32 85 -43 85 -6 0 -5 -5 0 -12 19 -24 35 -142
25 -179 -9 -33 -9 -32 -9 18 -1 57 -10 83 -23 63 -6 -9 -19 7 -40 46 -17 32
-29 51 -26 41 12 -37 18 -206 11 -253 l-9 -49 -7 40 c-24 128 -42 178 -77 218
-35 40 -39 11 -16 -128 l6 -40 -45 65 c-24 36 -62 78 -83 92 -42 29 -114 62
-114 52 0 -3 15 -24 33 -47 18 -23 40 -58 49 -77 24 -53 41 -148 32 -178 -6
-23 -8 -19 -15 30 -9 62 -36 124 -65 149 -20 17 -92 59 -100 59 -3 0 10 -22
30 -49 47 -64 47 -78 0 -17 -20 26 -38 45 -40 43 -2 -2 10 -34 27 -71 34 -73
34 -95 0 -47 -28 38 -108 98 -146 107 -27 6 -25 2 28 -47 31 -30 57 -57 57
-61 0 -8 -40 2 -65 17 -36 22 -83 26 -94 8 -8 -15 -14 -15 -52 -4 -83 26 -109
30 -109 17 0 -7 5 -17 12 -24 23 -23 -25 -12 -82 18 -68 37 -90 25 -39 -21
l34 -30 -29 5 c-34 6 -56 25 -103 88 -19 27 -39 48 -44 48 -5 0 -9 -18 -9 -40
0 -22 -3 -40 -6 -40 -17 0 -98 67 -130 108 -21 26 -42 52 -47 57 -6 6 -7 -13
-3 -49 6 -58 6 -59 -12 -43 -10 9 -24 17 -31 17 -7 0 -9 4 -6 10 7 11 -14 55
-22 46 -3 -3 0 -14 8 -23 12 -16 11 -16 -8 1 -12 10 -22 21 -21 25 1 3 -6 23
-15 43 -30 67 -23 127 30 233 30 60 50 90 55 82 4 -7 8 35 8 93 0 89 4 113 24
155 13 28 34 60 47 72 13 12 87 52 164 90 122 59 149 77 208 136 87 88 128
169 161 320 10 43 33 32 65 -30 l30 -58 1 56 c1 171 -145 397 -310 477 -119
58 -205 75 -390 76 -188 1 -259 -13 -455 -89 -159 -61 -193 -68 -287 -63 -64
4 -104 13 -178 42 -122 48 -193 64 -316 72 -162 11 -337 -37 -427 -116 -18
-15 -36 -28 -41 -29 -6 0 -11 -8 -12 -16 -3 -24 -25 -46 -37 -38 -6 3 -7 1 -3
-5 4 -6 -4 -33 -17 -59 -48 -96 -62 -160 -58 -276 1 -44 3 -48 31 -53 17 -4
30 -12 30 -20 0 -7 6 -19 13 -26 7 -7 25 -41 40 -76 50 -117 86 -162 191 -236
117 -83 140 -118 162 -242 9 -49 20 -94 26 -101 6 -7 8 -13 4 -13 -9 0 31 -77
45 -86 6 -3 3 6 -6 22 l-18 29 26 -30 c25 -29 36 -52 19 -41 -4 2 -8 -4 -8
-15 0 -12 4 -15 10 -9 15 15 29 12 22 -6 -3 -8 -2 -13 3 -10 12 8 64 -62 56
-74 -4 -6 -1 -9 5 -8 14 3 38 -55 39 -95 2 -54 -59 -143 -142 -208 -53 -43
-68 -45 -43 -7 25 39 56 127 47 133 -5 3 -25 -13 -45 -36 -32 -38 -127 -109
-146 -109 -4 0 -4 18 0 40 4 22 4 40 0 40 -4 0 -19 -25 -34 -55 -23 -45 -37
-59 -79 -80 -28 -14 -59 -25 -70 -25 -16 0 -14 5 12 37 32 38 43 104 21 118
-6 4 -10 3 -9 -2 5 -26 -3 -50 -20 -60 -19 -12 -20 -9 -20 53 0 37 -1 68 -3
70 -4 4 -68 -76 -100 -125 -16 -23 -18 -23 -18 -6 0 10 7 39 16 62 9 24 14 46
11 49 -6 6 -90 -75 -114 -112 -9 -14 -20 -42 -24 -62 -6 -35 -7 -34 -8 16 -1
35 6 66 19 92 11 22 20 44 20 49 0 13 -98 -29 -141 -60 -17 -12 -39 -35 -49
-52 l-18 -30 -7 45 c-4 29 -1 62 8 96 14 47 14 51 -1 54 -9 2 -22 -3 -29 -12
-10 -13 -11 -11 -6 8 8 32 -6 27 -55 -20 l-43 -43 41 85 c45 95 39 113 -20 55
-32 -31 -38 -34 -44 -19 -5 14 28 72 54 94 11 10 50 68 50 76 0 4 -15 -6 -32
-22 -54 -50 -138 -91 -138 -68 0 4 29 36 65 71 36 35 65 65 65 67 0 2 -17 -2
-37 -10 -21 -7 -49 -13 -63 -13 -17 0 -8 6 28 18 57 20 69 27 59 37 -4 4 -18
-1 -31 -10 -37 -24 -43 -20 -10 7 16 12 33 20 39 19 5 -2 7 0 3 4 -4 4 -3 14
4 21 14 18 -6 34 -31 26 -9 -3 2 14 25 38 49 52 92 116 124 184 23 48 24 64
31 335 7 293 12 334 53 443 82 218 193 356 357 445 86 46 368 150 445 163 81
14 225 7 339 -17 111 -23 253 -15 415 25 69 16 136 32 150 34 58 10 181 6 270
-8z m710 -65 c38 -33 30 -41 -10 -10 -14 11 -31 20 -37 20 -7 0 -13 5 -13 10
0 18 24 10 60 -20z m10 -182 c0 -6 -6 -5 -15 2 -8 7 -15 14 -15 16 0 2 7 1 15
-2 8 -4 15 -11 15 -16z m2613 -13 c4 -8 2 -17 -3 -20 -6 -4 -10 3 -10 14 0 25
6 27 13 6z m-3120 -74 c23 -8 35 -16 31 -23 -4 -7 -2 -8 5 -4 15 10 101 -45
139 -88 96 -110 51 -178 -143 -216 -61 -12 -132 -30 -160 -40 -29 -11 -65 -16
-85 -13 -30 4 -82 10 -115 12 -5 1 -3 5 5 10 8 6 17 8 21 5 4 -2 10 -1 13 4
13 21 -45 7 -103 -25 -123 -67 -118 -66 -155 -53 -45 15 -59 33 -60 80 l0 38
-23 -24 c-12 -13 -26 -24 -31 -24 -19 0 -32 27 -32 65 0 23 -6 63 -14 88 -7
25 -11 48 -8 51 3 4 0 6 -6 6 -11 0 -36 -46 -75 -142 -21 -50 -36 -48 -31 5 4
41 4 42 -6 9 -6 -18 -15 -30 -20 -27 -6 4 -10 1 -10 -5 0 -22 -87 -104 -135
-126 -97 -46 -227 -22 -331 60 -78 62 -75 60 -109 71 -36 13 -68 8 -62 -9 3
-6 -4 -13 -14 -13 -17 -2 -18 0 -4 13 20 20 19 24 -6 24 -11 0 -18 -4 -15 -9
3 -5 -12 -8 -34 -7 -24 0 -34 4 -27 9 7 5 2 7 -13 4 -30 -6 -146 36 -143 52 2
6 -2 10 -8 8 -6 -1 -20 11 -32 26 -26 34 -20 47 49 100 68 52 143 78 244 84
91 6 98 4 383 -72 199 -52 316 -47 462 21 58 27 190 72 249 84 56 12 362 5
409 -9z m2393 -145 c5 -22 4 -28 -7 -24 -8 3 -14 18 -14 36 0 36 10 30 21 -12z
m33 -51 l0 -20 -8 20 c-4 11 -11 34 -14 50 l-6 30 14 -30 c8 -16 14 -39 14
-50z m-3154 -47 c0 -35 3 -76 7 -93 l7 -30 -14 30 c-15 31 -20 111 -9 139 3 9
7 16 8 16 0 0 1 -28 1 -62z m530 -158 c-3 -5 -11 -10 -16 -10 -6 0 -7 5 -4 10
3 6 11 10 16 10 6 0 7 -4 4 -10z m-153 -215 c-31 -140 4 -218 129 -285 l61
-32 -38 -39 c-41 -42 -56 -44 -113 -15 -56 29 -101 124 -101 213 0 52 57 223
74 223 2 0 -4 -29 -12 -65z m373 -170 c0 -11 10 -24 22 -30 20 -11 14 -16 -75
-58 -86 -40 -102 -45 -135 -37 -40 9 -62 22 -89 55 -28 32 -22 37 45 31 56 -5
68 -3 132 28 77 38 100 41 100 11z m-2465 -504 c0 -20 -26 -28 -60 -18 l-35
10 30 7 c44 11 65 11 65 1z m3565 -271 c27 -30 12 -34 -15 -5 -13 14 -19 25
-13 25 5 0 18 -9 28 -20z m-3519 -87 c-27 -52 -66 -112 -66 -102 0 36 66 149
87 149 2 0 -8 -21 -21 -47z m2191 -278 c-14 -25 -122 -117 -152 -129 -29 -12
-425 -16 -597 -6 -114 6 -156 12 -185 27 -43 22 -103 103 -103 139 0 29 4 29
38 6 81 -56 221 -82 442 -82 290 0 414 27 490 105 l34 35 23 -37 c18 -30 20
-40 10 -58z m1190 -7 c-3 -7 -5 -2 -5 12 0 14 2 19 5 13 2 -7 2 -19 0 -25z
m-210 -102 c0 -8 -6 -12 -15 -9 -11 5 -11 7 0 14 7 5 13 9 14 9 0 0 1 -6 1
-14z m-2319 -281 c11 -44 23 -99 27 -122 8 -51 25 -57 25 -9 0 19 5 38 11 42
7 4 10 -1 7 -12 -2 -10 7 -28 19 -40 19 -19 21 -27 13 -50 -6 -15 -9 -29 -6
-31 2 -3 7 5 11 16 7 25 25 28 25 5 0 -8 5 -12 11 -8 8 5 8 1 0 -13 -6 -11 -7
-24 -3 -28 4 -5 2 -5 -5 -1 -7 4 -10 13 -6 21 3 8 1 15 -5 15 -24 0 -16 -32
40 -145 l59 -120 -52 55 c-29 30 -63 78 -75 105 -16 35 -23 43 -23 28 -1 -38
-17 -26 -41 28 -12 29 -30 60 -39 71 -44 47 -75 257 -41 278 21 13 25 6 48
-85z m1877 40 c5 -28 1 -72 -10 -121 -17 -77 -53 -172 -54 -144 -1 8 -15 -10
-33 -40 -17 -30 -45 -73 -62 -95 -18 -22 -45 -59 -60 -82 -16 -24 -30 -43 -31
-43 -1 0 5 25 12 56 14 53 11 124 -5 124 -4 0 -16 -21 -26 -48 -11 -26 -34
-69 -53 -97 l-33 -50 -1 45 c-1 25 -1 48 0 52 1 12 -60 68 -75 68 -21 0 -17
11 14 45 16 17 33 39 40 50 9 17 11 17 12 3 0 -9 -5 -29 -10 -44 -8 -19 -8
-30 0 -38 7 -7 10 -6 10 2 0 6 11 21 24 34 13 13 29 45 35 71 11 47 46 107 63
107 4 0 8 -24 8 -52 l1 -53 19 39 c11 22 24 42 29 45 5 4 16 22 25 41 9 19 32
55 51 80 84 107 100 113 110 45z m-1705 -365 c0 -5 18 -28 40 -51 22 -23 37
-46 34 -50 -3 -5 -1 -9 4 -9 6 0 15 -15 21 -32 l12 -33 -30 30 c-34 35 -105
155 -90 155 5 0 9 -4 9 -10z m1312 -132 c-6 -6 -7 0 -4 19 5 21 7 23 10 9 2
-10 0 -22 -6 -28z m-30 -60 c-8 -8 -9 -4 -5 13 4 13 8 18 11 10 2 -7 -1 -18
-6 -23z m-1002 -61 c33 -40 23 -37 -27 7 -23 19 -30 36 -15 36 4 0 23 -19 42
-43z m60 18 c14 -19 14 -19 -2 -6 -10 7 -18 18 -18 24 0 6 1 8 3 6 1 -2 9 -13
17 -24z m76 -27 c4 -6 3 -8 -4 -4 -6 3 -13 2 -17 -4 -3 -5 -12 -10 -18 -10 -7
0 -3 7 7 15 24 18 23 18 32 3z"/>
<path d="M8302 7170 c0 -14 2 -19 5 -12 2 6 2 18 0 25 -3 6 -5 1 -5 -13z"/>
<path d="M1921 6971 c-22 -176 -83 -284 -204 -362 -63 -41 -62 -57 3 -35 104
36 186 134 214 255 17 75 22 216 7 225 -5 3 -14 -34 -20 -83z"/>
<path d="M4085 8420 c-3 -5 -1 -10 4 -10 6 0 11 5 11 10 0 6 -2 10 -4 10 -3 0
-8 -4 -11 -10z"/>
<path d="M4246 8083 c-6 -14 -5 -15 5 -6 7 7 10 15 7 18 -3 3 -9 -2 -12 -12z"/>
<path d="M7085 8350 c3 -5 11 -10 16 -10 6 0 7 5 4 10 -3 6 -11 10 -16 10 -6
0 -7 -4 -4 -10z"/>
<path d="M4245 7930 c-16 -7 -17 -9 -3 -9 9 -1 20 4 23 9 7 11 7 11 -20 0z"/>
<path d="M4416 7859 c-33 -17 -102 -42 -155 -56 -81 -21 -111 -24 -196 -20
l-100 5 45 -21 c73 -33 173 -35 272 -4 90 28 170 74 188 106 6 12 9 21 8 21
-2 -1 -30 -15 -62 -31z"/>
<path d="M5674 8214 c3 -8 6 -18 6 -20 0 -3 5 -2 10 1 15 9 12 22 -6 29 -12 5
-15 2 -10 -10z"/>
<path d="M5825 8091 c-3 -5 -1 -12 5 -16 5 -3 10 -1 10 5 0 7 13 4 33 -8 17
-11 70 -32 117 -47 47 -14 91 -29 99 -31 11 -4 11 -2 2 10 -15 17 -212 96
-241 96 -10 0 -21 -4 -25 -9z"/>
<path d="M4582 8563 c-7 -2 -17 -14 -23 -26 -11 -21 -10 -20 15 2 14 14 26 26
26 28 0 3 0 3 -18 -4z"/>
<path d="M7668 7923 c7 -3 16 -2 19 1 4 3 -2 6 -13 5 -11 0 -14 -3 -6 -6z"/>
<path d="M7880 7798 c0 -9 5 -20 10 -23 13 -8 13 5 0 25 -8 13 -10 13 -10 -2z"/>
<path d="M7677 7719 c7 -7 15 -10 18 -7 3 3 -2 9 -12 12 -14 6 -15 5 -6 -5z"/>
<path d="M7880 7660 c-21 -7 -21 -8 -5 -9 11 0 27 4 35 9 18 11 5 11 -30 0z"/>
<path d="M8111 7609 c7 -4 17 -5 22 -2 4 3 18 -3 30 -14 22 -18 22 -18 4 3
-10 12 -29 22 -43 22 -18 0 -22 -3 -13 -9z"/>
<path d="M8165 7550 c-3 -6 1 -7 9 -4 18 7 21 14 7 14 -6 0 -13 -4 -16 -10z"/>
<path d="M6390 7545 c-13 -14 -19 -25 -14 -25 8 1 50 50 41 50 -2 0 -14 -11
-27 -25z"/>
<path d="M6260 6804 c0 -8 5 -12 10 -9 6 4 8 11 5 16 -9 14 -15 11 -15 -7z"/>
<path d="M7096 6634 c-3 -8 -1 -25 6 -37 6 -12 10 -23 9 -25 -2 -2 -1 -5 1 -8
3 -2 4 10 4 26 0 17 -3 30 -8 30 -4 0 -5 7 -2 15 4 8 4 15 1 15 -3 0 -8 -7
-11 -16z"/>
<path d="M7130 6556 c0 -2 7 -9 15 -16 13 -11 14 -10 9 4 -5 14 -24 23 -24 12z"/>
<path d="M3500 6623 c0 -4 5 -15 10 -23 8 -13 10 -13 10 2 0 9 -4 20 -10 23
-5 3 -10 3 -10 -2z"/>
<path d="M5286 6945 c9 -14 21 -22 27 -18 6 3 7 1 3 -6 -4 -6 -1 -18 8 -26 19
-19 31 -2 16 24 -10 21 -48 51 -62 51 -5 0 -1 -11 8 -25z"/>
<path d="M5035 6899 c4 -5 21 -16 38 -25 18 -9 43 -26 57 -38 l25 -21 -19 23
c-19 22 -112 79 -101 61z"/>
<path d="M4890 6840 c12 -17 33 -75 46 -128 l24 -97 -3 75 c-4 83 -31 151 -69
171 -21 11 -21 11 2 -21z"/>
<path d="M5051 6726 c1 -69 -2 -101 -11 -106 -7 -4 -9 -13 -6 -19 4 -6 2 -11
-3 -11 -6 0 -11 -6 -11 -13 0 -7 -8 -22 -17 -33 -10 -11 -23 -28 -29 -39 -5
-10 -25 -26 -44 -37 -19 -10 -29 -18 -22 -18 8 0 0 -18 -20 -42 l-33 -43 44
38 c25 20 48 37 51 37 4 0 5 -13 2 -30 -3 -20 0 -30 9 -30 19 0 120 109 136
147 19 47 16 135 -8 206 -34 101 -39 100 -38 -7z"/>
<path d="M5514 6769 c0 -10 4 -19 8 -19 4 0 8 6 8 14 0 8 -4 17 -8 20 -4 2 -8
-4 -8 -15z"/>
<path d="M4660 6735 c-19 -36 -8 -40 12 -4 9 16 14 29 9 29 -4 0 -14 -11 -21
-25z"/>
<path d="M4742 6678 c-15 -15 -16 -72 -1 -101 7 -12 29 -41 50 -64 22 -24 39
-47 39 -53 0 -5 9 -10 20 -10 21 0 27 14 11 24 -15 10 -73 117 -90 169 -13 38
-19 45 -29 35z"/>
<path d="M5485 6665 c4 -11 9 -47 12 -80 3 -33 10 -67 15 -75 17 -27 0 118
-17 147 -9 16 -13 19 -10 8z"/>
<path d="M5605 6488 c3 -26 13 -67 20 -90 l15 -43 -4 55 c-3 30 -12 71 -21 90
l-16 35 6 -47z"/>
<path d="M4653 6342 c-27 -18 -63 -87 -63 -123 0 -44 20 -65 21 -22 1 51 9 74
35 109 26 34 29 50 7 36z"/>
<path d="M5440 6315 c0 -8 -4 -15 -10 -15 -5 0 -10 -13 -10 -30 0 -16 -5 -41
-12 -55 -11 -24 -8 -30 45 -83 68 -68 75 -63 12 8 -25 28 -45 54 -45 59 0 25
20 16 69 -31 l55 -53 -52 57 c-52 57 -53 58 -46 108 4 27 4 50 0 50 -3 0 -6
-7 -6 -15z"/>
<path d="M4628 6260 c-3 -9 12 -67 33 -130 24 -73 38 -104 38 -85 0 17 -11 57
-25 90 -15 33 -29 78 -33 100 -4 24 -9 34 -13 25z"/>
<path d="M5120 6236 c0 -2 14 -36 30 -74 34 -80 38 -137 15 -202 -8 -24 -13
-45 -11 -47 2 -2 15 10 29 27 33 38 50 99 41 145 -7 39 -78 155 -94 155 -5 0
-10 -2 -10 -4z"/>
<path d="M4751 6202 c-1 -7 8 -50 20 -97 l21 -84 -24 -53 c-14 -29 -50 -82
-81 -118 -31 -36 -57 -68 -57 -72 0 -4 13 0 29 10 16 9 27 20 25 24 -2 3 0 9
5 12 5 4 13 1 16 -5 5 -7 13 -1 24 14 9 14 32 47 51 73 31 44 35 56 35 114 0
53 -6 77 -32 130 -17 36 -32 59 -32 52z"/>
<path d="M4910 6187 c20 -15 79 -106 116 -177 40 -75 38 -124 -9 -220 -37 -76
-47 -133 -27 -169 9 -18 129 -101 145 -101 4 0 -5 12 -21 26 -87 77 -103 95
-114 128 -10 33 -8 40 34 121 54 103 58 142 20 198 -14 21 -48 75 -75 120 -27
45 -57 82 -67 83 -15 2 -15 1 -2 -9z"/>
<path d="M5351 6093 c12 -31 48 -93 55 -93 2 0 -9 27 -26 60 -32 62 -47 80
-29 33z"/>
<path d="M4933 5998 c33 -65 29 -140 -11 -210 -19 -32 -32 -69 -32 -89 0 -36
40 -132 60 -144 7 -4 1 12 -13 36 -14 24 -28 60 -32 80 -6 30 -2 42 27 80 18
24 39 57 46 72 25 58 10 141 -37 195 -30 34 -33 26 -8 -20z"/>
<path d="M4537 5752 c-7 -38 8 -163 23 -193 16 -29 39 -48 60 -49 11 0 11 3 2
12 -7 7 -12 19 -12 27 0 10 7 8 25 -9 30 -28 33 -18 5 17 -20 26 -80 172 -80
197 0 27 -18 26 -23 -2z"/>
<path d="M5224 5692 c8 -16 22 -35 32 -43 10 -8 5 4 -11 29 -32 48 -42 55 -21
14z"/>
<path d="M4734 5652 c4 -58 27 -100 64 -113 12 -5 22 -4 22 1 0 5 -9 12 -20
15 -24 8 -40 35 -57 100 l-13 50 4 -53z"/>
<path d="M4654 5573 c9 -17 21 -35 27 -38 21 -14 16 1 -13 35 l-30 35 16 -32z"/>
<path d="M5512 5390 c0 -14 2 -19 5 -12 2 6 2 18 0 25 -3 6 -5 1 -5 -13z"/>
<path d="M5760 5131 c0 -5 5 -13 10 -16 6 -3 10 -2 10 4 0 5 -4 13 -10 16 -5
3 -10 2 -10 -4z"/>
<path d="M766 6713 c-6 -14 -5 -15 5 -6 7 7 10 15 7 18 -3 3 -9 -2 -12 -12z"/>
<path d="M795 6679 c-4 -6 -5 -12 -2 -15 2 -3 7 2 10 11 7 17 1 20 -8 4z"/>
<path d="M2998 6583 c7 -3 16 -2 19 1 4 3 -2 6 -13 5 -11 0 -14 -3 -6 -6z"/>
<path d="M2958 6573 c7 -3 16 -2 19 1 4 3 -2 6 -13 5 -11 0 -14 -3 -6 -6z"/>
<path d="M2448 6163 c7 -3 16 -2 19 1 4 3 -2 6 -13 5 -11 0 -14 -3 -6 -6z"/>
<path d="M7065 6440 c-10 -16 7 -31 23 -21 10 6 10 10 -2 20 -10 9 -16 9 -21
1z"/>
<path d="M2970 3590 c-8 -5 -10 -10 -5 -10 6 0 17 5 25 10 8 5 11 10 5 10 -5
0 -17 -5 -25 -10z"/>
<path d="M3070 3200 c-22 -43 -24 -50 -12 -50 7 0 52 73 52 84 0 19 -23 0 -40
-34z"/>
<path d="M3688 4683 c7 -3 16 -2 19 1 4 3 -2 6 -13 5 -11 0 -14 -3 -6 -6z"/>
<path d="M5305 4110 c-3 -5 -2 -10 4 -10 5 0 13 5 16 10 3 6 2 10 -4 10 -5 0
-13 -4 -16 -10z"/>
<path d="M5026 3041 c-3 -5 2 -15 11 -22 15 -12 16 -12 10 3 -4 13 -2 16 11
12 14 -5 15 -4 2 5 -18 13 -27 14 -34 2z"/>
<path d="M5055 3010 c-3 -5 -13 -6 -22 -3 -12 5 -14 3 -8 -6 4 -8 2 -17 -6
-22 -11 -7 -11 -9 -1 -9 7 0 10 -6 7 -12 -4 -7 3 -3 14 10 11 13 22 23 25 22
20 -1 26 1 26 10 0 5 -7 6 -17 3 -11 -4 -14 -3 -9 5 4 7 5 12 2 12 -3 0 -7 -4
-11 -10z"/>
<path d="M3865 2490 c3 -5 11 -10 16 -10 6 0 7 5 4 10 -3 6 -11 10 -16 10 -6
0 -7 -4 -4 -10z"/>
<path d="M5510 2338 c0 -3 -7 -22 -15 -42 -8 -20 -13 -36 -10 -36 9 0 37 71
31 78 -3 3 -6 3 -6 0z"/>
<path d="M5260 2320 c0 -5 7 -10 15 -10 8 0 15 5 15 10 0 6 -7 10 -15 10 -8 0
-15 -4 -15 -10z"/>
<path d="M8143 6735 c-69 -35 -83 -52 -40 -50 30 1 108 42 122 65 11 18 -30
11 -82 -15z"/>
<path d="M7865 6471 c-22 -11 -37 -20 -34 -20 10 -1 79 29 79 34 0 7 0 7 -45
-14z"/>
<path d="M8958 6123 c7 -3 16 -2 19 1 4 3 -2 6 -13 5 -11 0 -14 -3 -6 -6z"/>
<path d="M2911 4904 c0 -11 3 -14 6 -6 3 7 2 16 -1 19 -3 4 -6 -2 -5 -13z"/>
</g>
</svg>
